<svg version="1" xmlns="http://www.w3.org/2000/svg" width="346.667" height="346.667" viewBox="0 0 260.000000 260.000000"><path d="M116.9 23c-23.4 5.1-42.4 17.1-54.1 34.3C54.3 69.8 50.7 81.8 50.7 98c0 16.1 3.7 27.8 12.6 39.5 10.8 14.4 25 21.1 46.4 22 19.1.8 27.3 3.3 27.3 8.3 0 5.7-7.2 8.1-22.5 7.7-6.1-.2-12.3-.6-14-.9-13.7-2.2-27.8-7-37.9-12.9-2.7-1.5-5-2.7-5.1-2.5-.3.3-.7 4.1-2 17.1-.9 8.9-1.6 15.2-2 18.2-.2 1.6-.7 5.7-1 9-1.2 11.5-1.5 15-2.1 18.6l-.5 3.6 9.7 4.3c11.1 4.9 25.8 10 37.7 13.2 6.3 1.7 11.2 2.2 21.2 2.2 14.6.1 18.4-.3 30.5-3.4 25-6.4 43.6-21.3 53.8-43.2 6.1-13.2 8.6-35.2 5.6-49.8-1.8-8.4-7-19.9-11.2-24.5-7.4-8.1-20.2-15.7-28.9-17.1-2.1-.3-4.2-.8-4.6-1.1-.4-.2-7.6-.7-16-.9-16.2-.5-21.2-1.4-24.8-4.2-1.7-1.5-2.1-2.5-1.5-4.6 1.2-4.7 9.2-6.9 25.1-6.9 13-.1 21.2 1.2 36.5 5.7 4.7 1.3 8.6 2.3 8.8 2.1.5-.4 1-4.5 1.7-13 .3-4.4.8-9.4 1-11 .2-1.7.7-6.6 1-10.9.4-4.3.8-8.6 1-9.5.2-.9.6-5.9 1-11.1l.7-9.5-5.9-2.3c-7-2.7-13.9-4.7-21.3-6.1-3-.6-6.8-1.3-8.5-1.7-1.6-.3-10.6-.7-20-.9-13.9-.3-18.6 0-25.6 1.5z"/></svg>