<svg version="1" xmlns="http://www.w3.org/2000/svg" width="346.667" height="346.667" viewBox="0 0 260.000000 260.000000"><path d="M0 130v130h260V0H0v130zM167.4 26.5c7.3 1.3 23.3 5.8 24.3 6.9.4.3-4.7 52.9-5.1 53.3-.2.2-4.5-.8-9.6-2.2-19-5-41.7-5.4-53-.9-11.4 4.6-12.1 16.3-1.3 21.4 4.1 2 7.2 2.4 21.8 3.1 9.4.4 19.3 1.3 22 2 13.6 3.2 25.6 12.3 31.3 23.6 8.6 16.9 7.9 42-1.8 61.8-10.7 22-31.2 35.7-59.8 40-22 3.3-36.5.9-67.4-11.3-10.7-4.2-11.8-4.9-11.8-7.1 0-3 5.1-50.5 5.4-50.9.2-.1 2.7.9 5.7 2.2 21.8 9.6 53.6 13.4 65.9 7.9 6-2.7 8.1-5.3 8.7-10.7.5-4.2.3-4.8-2.9-8-4.5-4.5-8.5-5.5-25.8-6.7-8-.5-17-1.6-20-2.5-17.7-5.1-30.7-18.8-35.7-37.7-2.1-8.1-2.1-24.1.2-32.6 7-26.9 30.2-46.6 61.8-52.7 9.2-1.7 34.8-1.2 47.1 1.1z"/></svg>